# Blender v2.79 (sub 0) OBJ File: 'editedHead.blend'
# www.blender.org
mtllib editedHead.mtl
o Plane.011_Plane.022
v 2.395758 -1.109556 0.780117
v -1.233176 0.063631 0.177251
v -0.767953 0.851908 0.177251
v -0.839334 1.134505 0.365432
v -0.458062 2.118146 0.500110
v -0.893986 -0.239045 0.153747
v -0.601840 0.714021 0.335506
v -0.738027 -0.059992 0.361475
v -0.077562 0.639557 1.214476
v -0.386751 1.024193 0.996774
v -0.278559 0.056096 1.064389
v -0.966454 -0.401817 0.205998
v -0.887067 -0.588416 0.214278
v -0.923806 -0.734021 0.186415
v -0.628136 -0.594933 0.506625
v -0.441451 -0.603709 0.801644
v -0.810483 -0.912094 0.169535
v -0.845608 -1.325593 0.173874
v -0.598998 -1.349484 0.371751
v -0.071023 1.819354 1.121373
v 1.034624 1.765176 1.255598
v 1.011895 0.626119 1.350784
v -0.268423 -1.315251 0.531925
v 0.221359 -0.943098 0.867349
v 0.478290 -0.461330 1.151507
v -0.671466 -1.435198 0.134726
v -0.374478 -1.448441 0.184819
v 2.308794 1.952920 0.388193
v 2.302141 1.656385 0.697997
v 2.417212 0.668784 0.697997
v 2.014362 -0.061327 0.697997
v 1.447554 -0.171128 0.783689
v 0.880168 -0.572635 0.925963
v 0.736438 -0.891763 0.827420
v 0.418831 -1.232741 0.489710
v 0.286447 -1.317033 0.293646
v 1.830031 -1.226000 0.869961
v 1.258414 -1.622481 1.011994
v 1.092173 -2.070252 0.900177
v 0.738074 -2.396328 0.525862
v 0.621552 -2.579885 0.320658
v 2.395758 -1.109556 -0.780117
v -1.233176 0.063631 -0.177251
v -0.767953 0.851908 -0.177251
v -0.839334 1.134505 -0.365432
v -0.458062 2.118146 -0.500110
v -0.893986 -0.239045 -0.153747
v -0.601840 0.714021 -0.335506
v -0.738027 -0.059992 -0.361475
v -0.077562 0.639557 -1.214476
v -0.386751 1.024193 -0.996774
v -0.278559 0.056096 -1.064389
v -0.966454 -0.401817 -0.205998
v -0.887067 -0.588416 -0.214278
v -0.923806 -0.734021 -0.186415
v -0.628136 -0.594933 -0.506625
v -0.441451 -0.603709 -0.801644
v -0.810483 -0.912094 -0.169535
v -0.845608 -1.325593 -0.173874
v -0.598998 -1.349484 -0.371751
v -0.071023 1.819354 -1.121373
v 1.034624 1.831434 -1.255598
v 1.011895 0.626119 -1.350784
v -0.268423 -1.315251 -0.531925
v 0.221359 -0.943098 -0.867349
v 0.478290 -0.461330 -1.151507
v -0.671466 -1.435198 -0.134726
v -0.374478 -1.448441 -0.184819
v 2.308794 1.952920 -0.388193
v 2.302141 1.656385 -0.697997
v 2.417212 0.668784 -0.697997
v 2.014362 -0.061327 -0.697997
v 1.447554 -0.171128 -0.783689
v 0.880168 -0.572635 -0.925963
v 0.736438 -0.891763 -0.827420
v 0.418831 -1.232741 -0.489710
v 0.286447 -1.317033 -0.293646
v 1.830031 -1.226000 -0.869961
v 1.258414 -1.622481 -1.011994
v 1.092173 -2.070252 -0.900177
v 0.738074 -2.396328 -0.525862
v 0.621552 -2.579885 -0.320658
v -0.839334 1.134505 0.000000
v 2.657511 0.701127 0.000000
v -0.458062 2.164522 0.000000
v 2.368027 2.022384 0.000000
v 2.310616 -0.237931 0.000000
v 0.615332 -2.579885 0.000000
v 2.727358 -1.292803 0.000000
v 0.286447 -1.321247 0.000000
v -0.380493 -1.462648 0.000000
v -0.845608 -1.325593 0.000000
v -0.810483 -0.912094 0.000000
v -0.923806 -0.734021 0.000000
v -0.887067 -0.588416 0.000000
v -0.953139 -0.456362 0.000000
v -0.858333 -0.250427 0.000000
v -1.097475 -0.178473 0.000000
v -1.233176 0.063631 0.000000
v -0.767953 0.851908 0.000000
v -0.671466 -1.435198 0.000000
v 2.384588 2.277144 -0.000000
v 0.915985 2.920585 -0.000000
v -0.441501 2.652742 -0.000000
v -0.441501 2.606365 0.500110
v -0.052010 2.520176 1.119873
v 0.915985 2.856465 0.686099
v 1.051185 2.722825 1.255598
v 2.325355 2.207680 0.388193
v 2.318703 2.152815 0.697997
v -0.441501 2.606365 -0.500110
v -0.054462 2.307573 -0.900547
v 0.915985 2.856465 -0.686099
v 1.051185 2.481155 -1.034772
v 2.325355 2.207680 -0.388193
v 2.318703 1.911145 -0.697997
vt 0.329127 0.490607
vt 0.334372 0.489462
vt 0.353011 0.541048
vt 0.337541 0.544620
vt 0.376318 0.565181
vt 0.341645 0.571813
vt 0.469355 0.707970
vt 0.367964 0.749183
vt 0.327838 0.482465
vt 0.326429 0.473629
vt 0.333679 0.473199
vt 0.348645 0.476285
vt 0.368982 0.523570
vt 0.435146 0.463463
vt 0.438101 0.516298
vt 0.385816 0.454343
vt 0.325156 0.465734
vt 0.332318 0.465648
vt 0.324378 0.460959
vt 0.331026 0.459174
vt 0.323640 0.456447
vt 0.328453 0.455534
vt 0.342709 0.452738
vt 0.352462 0.444824
vt 0.322716 0.450835
vt 0.327133 0.449929
vt 0.321257 0.442032
vt 0.323909 0.441447
vt 0.327833 0.437734
vt 0.565636 0.566334
vt 0.919145 0.027154
vt 0.999895 0.179796
vt 0.946797 0.190579
vt 0.856213 0.111494
vt 0.657676 0.114040
vt 0.697173 0.059941
vt 0.729188 0.103013
vt 0.708293 0.139316
vt 0.446897 0.363953
vt 0.640712 0.331281
vt 0.348364 0.417201
vt 0.332193 0.430580
vt 0.373860 0.407048
vt 0.320701 0.438695
vt 0.322962 0.438367
vt 0.319801 0.433303
vt 0.323739 0.432715
vt 0.900519 0.349700
vt 0.746435 0.349988
vt 0.772036 0.279764
vt 0.892312 0.323460
vt 0.966896 0.222993
vt 0.938375 0.218080
vt 0.429314 0.067665
vt 0.358083 0.264999
vt 0.367548 0.353525
vt 0.347340 0.327730
vt 0.360599 0.388362
vt 0.348455 0.396662
vt 0.331422 0.411547
vt 0.317018 0.416736
vt 0.325229 0.415326
vt 0.289661 0.255772
vt 0.244617 0.000105
vt 0.345136 0.000105
vt 0.301557 0.324898
vt 0.318596 0.363117
vt 0.307539 0.360542
vt 0.314915 0.393919
vt 0.316413 0.392571
vt 0.313324 0.394063
vt 0.318879 0.389257
vt 0.324294 0.382950
vt 0.324322 0.370845
vt 0.321733 0.545810
vt 0.323791 0.491126
vt 0.306596 0.575616
vt 0.257910 0.741793
vt 0.319420 0.475481
vt 0.306244 0.483044
vt 0.301368 0.533934
vt 0.234368 0.546705
vt 0.223628 0.496496
vt 0.264955 0.473799
vt 0.318343 0.467911
vt 0.317516 0.461378
vt 0.318792 0.457118
vt 0.304456 0.459003
vt 0.292810 0.454644
vt 0.318247 0.451395
vt 0.318558 0.442337
vt 0.313649 0.440098
vt 0.117941 0.633385
vt 0.919389 0.305044
vt 0.902633 0.283565
vt 0.640921 0.272057
vt 0.640921 0.177803
vt 0.690612 0.176016
vt 0.682254 0.230447
vt 0.000105 0.436018
vt 0.175877 0.411117
vt 0.287694 0.427479
vt 0.307213 0.434759
vt 0.260669 0.426459
vt 0.318456 0.439118
vt 0.315887 0.434028
vt 0.777566 0.000105
vt 0.781121 0.073031
vt 0.097833 0.129473
vt 0.228255 0.287469
vt 0.259216 0.343064
vt 0.248605 0.374401
vt 0.266799 0.404753
vt 0.280871 0.408408
vt 0.301683 0.416511
vt 0.308771 0.418050
vt 0.151388 0.036407
vt 0.298169 0.366300
vt 0.309747 0.393442
vt 0.311721 0.394386
vt 0.305335 0.390773
vt 0.298470 0.387479
vt 0.295281 0.377339
vt 0.826392 0.145981
vt 0.802203 0.190365
vt 0.920622 0.251691
vt 0.777470 0.237616
vt 0.944763 0.265386
vn -0.8612 0.5083 0.0000
vn -0.9695 -0.2449 0.0000
vn -0.9354 0.3530 0.0189
vn -0.8723 -0.4889 -0.0000
vn -0.2881 -0.9576 0.0041
vn -0.4733 -0.5818 0.6614
vn -0.3998 0.1689 0.9009
vn -0.7827 -0.4304 0.4496
vn -0.8400 0.1613 0.5181
vn -0.9035 0.3825 -0.1931
vn -0.9097 -0.4146 0.0250
vn -0.9696 0.2447 0.0000
vn -0.7219 -0.2790 0.6332
vn -0.7465 0.0616 0.6625
vn -0.7058 0.1575 0.6906
vn -0.8385 -0.0164 0.5447
vn -0.8437 -0.5369 0.0000
vn -0.5647 -0.4264 0.7066
vn -0.9964 0.0846 0.0000
vn -0.6211 0.0610 0.7814
vn -0.8275 -0.1296 0.5463
vn -0.7763 0.2180 0.5915
vn 0.4006 -0.0091 0.9162
vn -0.9994 0.0339 0.0031
vn -0.1779 0.0811 0.9807
vn -0.3188 -0.4028 0.8580
vn -0.2922 -0.3237 0.8999
vn -0.1573 -0.1354 0.9782
vn -0.5327 -0.8463 0.0000
vn -0.4144 -0.8080 0.4189
vn -0.0728 -0.9963 0.0457
vn -0.0947 -0.9224 0.3746
vn 0.3789 0.2064 -0.9021
vn 0.9990 -0.0440 -0.0035
vn 0.4066 0.0680 0.9111
vn 0.4196 0.0489 0.9064
vn 0.3539 -0.3189 0.8793
vn 0.4214 -0.3437 0.8392
vn 0.2094 -0.5049 0.8374
vn 0.1279 -0.7535 0.6448
vn 0.1984 -0.9795 0.0352
vn 0.1333 -0.9389 0.3174
vn 0.9532 0.1667 0.2522
vn 0.8490 -0.3814 0.3657
vn 0.8900 0.3492 0.2930
vn -0.7713 -0.1922 0.6067
vn -0.9670 -0.2545 0.0115
vn -0.6446 -0.1509 0.7495
vn -0.4249 -0.0757 0.9021
vn 0.1503 0.1345 0.9795
vn 0.1275 0.1251 0.9839
vn -0.9354 0.3530 -0.0189
vn -0.2881 -0.9576 -0.0041
vn -0.4733 -0.5818 -0.6614
vn -0.3998 0.1689 -0.9009
vn -0.7827 -0.4304 -0.4496
vn -0.8400 0.1613 -0.5181
vn -0.9035 0.3825 0.1931
vn -0.9097 -0.4146 -0.0250
vn -0.7219 -0.2790 -0.6332
vn -0.7465 0.0616 -0.6625
vn -0.7058 0.1575 -0.6906
vn -0.8385 -0.0164 -0.5447
vn -0.5647 -0.4264 -0.7066
vn -0.6211 0.0610 -0.7814
vn -0.8275 -0.1296 -0.5463
vn -0.7763 0.2180 -0.5915
vn 0.9971 -0.0648 0.0406
vn -0.7335 0.1735 -0.6572
vn -0.1786 0.0791 -0.9807
vn -0.3188 -0.4028 -0.8580
vn -0.2922 -0.3237 -0.8999
vn -0.1573 -0.1354 -0.9782
vn -0.4144 -0.8080 -0.4189
vn -0.0728 -0.9963 -0.0457
vn -0.0947 -0.9224 -0.3746
vn -0.1422 0.3617 -0.9214
vn -0.8438 0.0259 0.5360
vn 0.4093 0.0642 -0.9102
vn 0.4196 0.0489 -0.9064
vn 0.3539 -0.3189 -0.8793
vn 0.4214 -0.3437 -0.8392
vn 0.2094 -0.5049 -0.8374
vn 0.1279 -0.7535 -0.6448
vn 0.1984 -0.9795 -0.0352
vn 0.1333 -0.9389 -0.3174
vn 0.9532 0.1667 -0.2522
vn 0.8490 -0.3814 -0.3657
vn 0.8900 0.3492 -0.2930
vn -0.7713 -0.1922 -0.6067
vn -0.9670 -0.2545 -0.0115
vn -0.6446 -0.1509 -0.7495
vn -0.4249 -0.0757 -0.9021
vn 0.1503 0.1345 -0.9795
vn 0.1275 0.1251 -0.9839
vn -0.1926 0.9770 0.0910
vn -0.2079 0.9413 0.2657
vn 0.4174 0.8987 0.1348
vn 0.4440 0.8872 0.1253
vn -0.1926 0.9770 -0.0910
vn -0.2069 0.6511 -0.7302
vn 0.4174 0.8987 -0.1348
vn 0.4456 0.6687 -0.5953
vn 0.9882 -0.0642 -0.1393
vn -0.1215 0.0035 0.9926
vn 0.9882 -0.0642 0.1393
vn -0.9994 0.0339 -0.0031
vn 0.5699 -0.8217 0.0000
vn -0.4837 -0.8752 0.0000
vn 0.2016 -0.9795 0.0000
vn 0.9375 -0.3480 0.0000
vn 0.6774 -0.7356 0.0000
vn 0.8524 -0.5226 -0.0165
vn 0.8524 -0.5226 0.0165
vn 0.8313 -0.5559 0.0000
usemtl Material.002
s off
f 99/1/1 2/2/1 3/3/1 100/4/1
f 4/5/2 83/6/2 100/4/2 3/3/2
f 5/7/3 85/8/3 83/6/3 4/5/3
f 99/1/4 98/9/4 2/2/4
f 97/10/5 6/11/5 98/9/5
f 2/2/6 98/9/6 6/11/6 8/12/6
f 8/12/7 7/13/7 3/3/7 2/2/7
f 4/5/8 3/3/8 7/13/8 9/14/8 10/15/8
f 8/12/9 11/16/9 9/14/9 7/13/9
f 96/17/10 12/18/10 6/11/10 97/10/10
f 95/19/11 13/20/11 12/18/11 96/17/11
f 94/21/12 14/22/12 13/20/12 95/19/12
f 13/20/13 15/23/13 12/18/13
f 14/22/14 15/23/14 13/20/14
f 8/12/15 6/11/15 12/18/15 15/23/15
f 11/16/16 8/12/16 15/23/16 16/24/16
f 93/25/17 17/26/17 14/22/17 94/21/17
f 15/23/18 14/22/18 17/26/18
f 92/27/19 18/28/19 17/26/19 93/25/19
f 18/28/20 19/29/20 17/26/20
f 16/24/21 15/23/21 17/26/21 19/29/21
f 5/7/22 4/5/22 10/15/22 20/30/22
f 21/31/23 29/32/23 110/33/23 108/34/23
f 85/35/24 5/36/24 105/37/24 104/38/24
f 9/14/25 22/39/25 21/40/25 20/30/25 10/15/25
f 24/41/26 16/24/26 19/29/26 23/42/26
f 25/43/27 11/16/27 16/24/27 24/41/27
f 11/16/28 25/43/28 22/39/28 9/14/28
f 18/28/29 92/27/29 101/44/29 26/45/29
f 19/29/30 18/28/30 26/45/30
f 91/46/31 27/47/31 26/45/31 101/44/31
f 23/42/32 19/29/32 26/45/32 27/47/32
f 70/48/33 62/49/33 114/50/33 116/51/33
f 29/32/34 28/52/34 109/53/34 110/33/34
f 22/39/35 29/54/35 21/40/35
f 29/54/36 22/39/36 30/55/36
f 22/39/37 32/56/37 31/57/37 30/55/37
f 25/43/38 33/58/38 32/56/38 22/39/38
f 34/59/39 33/58/39 25/43/39 24/41/39
f 35/60/40 34/59/40 24/41/40 23/42/40
f 90/61/41 36/62/41 27/47/41 91/46/41
f 27/47/42 36/62/42 35/60/42 23/42/42
f 84/63/43 86/64/43 28/65/43 29/54/43 30/55/43
f 87/66/44 84/63/44 30/55/44 31/57/44
f 87/66/45 31/57/45 1/67/45 89/68/45
f 35/60/46 36/62/46 41/69/46 40/70/46
f 36/62/47 90/61/47 88/71/47 41/69/47
f 34/59/48 35/60/48 40/70/48 39/72/48
f 33/58/49 34/59/49 39/72/49 38/73/49
f 32/56/50 33/58/50 38/73/50 37/74/50
f 31/57/51 32/56/51 37/74/51 1/67/51
f 99/1/1 100/4/1 44/75/1 43/76/1
f 45/77/2 44/75/2 100/4/2 83/6/2
f 46/78/52 45/77/52 83/6/52 85/8/52
f 99/1/4 43/76/4 98/9/4
f 97/10/53 98/9/53 47/79/53
f 43/76/54 49/80/54 47/79/54 98/9/54
f 49/80/55 43/76/55 44/75/55 48/81/55
f 45/77/56 51/82/56 50/83/56 48/81/56 44/75/56
f 49/80/57 48/81/57 50/83/57 52/84/57
f 96/17/58 97/10/58 47/79/58 53/85/58
f 95/19/59 96/17/59 53/85/59 54/86/59
f 94/21/12 95/19/12 54/86/12 55/87/12
f 54/86/60 53/85/60 56/88/60
f 55/87/61 54/86/61 56/88/61
f 49/80/62 56/88/62 53/85/62 47/79/62
f 52/84/63 57/89/63 56/88/63 49/80/63
f 93/25/17 94/21/17 55/87/17 58/90/17
f 56/88/64 58/90/64 55/87/64
f 92/27/19 93/25/19 58/90/19 59/91/19
f 59/91/65 58/90/65 60/92/65
f 57/89/66 60/92/66 58/90/66 56/88/66
f 46/78/67 61/93/67 51/82/67 45/77/67
f 69/94/68 70/48/68 116/51/68 115/95/68
f 61/96/69 46/97/69 111/98/69 112/99/69
f 50/83/70 51/82/70 61/93/70 62/100/70 63/101/70
f 65/102/71 64/103/71 60/92/71 57/89/71
f 66/104/72 65/102/72 57/89/72 52/84/72
f 52/84/73 50/83/73 63/101/73 66/104/73
f 59/91/29 67/105/29 101/44/29 92/27/29
f 60/92/74 67/105/74 59/91/74
f 91/46/75 101/44/75 67/105/75 68/106/75
f 64/103/76 68/106/76 67/105/76 60/92/76
f 62/49/77 61/96/77 112/99/77 114/50/77
f 5/36/78 20/107/78 106/108/78 105/37/78
f 63/101/79 62/100/79 70/109/79
f 70/109/80 71/110/80 63/101/80
f 63/101/81 71/110/81 72/111/81 73/112/81
f 66/104/82 63/101/82 73/112/82 74/113/82
f 75/114/83 65/102/83 66/104/83 74/113/83
f 76/115/84 64/103/84 65/102/84 75/114/84
f 90/61/85 91/46/85 68/106/85 77/116/85
f 68/106/86 64/103/86 76/115/86 77/116/86
f 84/63/87 71/110/87 70/109/87 69/117/87 86/64/87
f 87/66/88 72/111/88 71/110/88 84/63/88
f 87/66/89 89/68/89 42/118/89 72/111/89
f 76/115/90 81/119/90 82/120/90 77/116/90
f 77/116/91 82/120/91 88/71/91 90/61/91
f 75/114/92 80/121/92 81/119/92 76/115/92
f 74/113/93 79/122/93 80/121/93 75/114/93
f 73/112/94 78/123/94 79/122/94 74/113/94
f 72/111/95 42/118/95 78/123/95 73/112/95
f 107/124/96 103/125/96 104/38/96 105/37/96
f 106/108/97 108/34/97 107/124/97 105/37/97
f 109/53/98 102/126/98 103/125/98 107/124/98
f 108/34/99 110/33/99 109/53/99 107/124/99
f 113/127/100 111/98/100 104/38/100 103/125/100
f 112/99/101 111/98/101 113/127/101 114/50/101
f 115/95/102 113/127/102 103/125/102 102/126/102
f 114/50/103 113/127/103 115/95/103 116/51/103
f 86/128/104 69/94/104 115/95/104 102/126/104
f 20/107/105 21/31/105 108/34/105 106/108/105
f 28/52/106 86/128/106 102/126/106 109/53/106
f 46/97/107 85/35/107 104/38/107 111/98/107
f 38/73/108 79/122/108 78/123/108 37/74/108
f 1/67/109 42/118/109 89/68/109
f 37/74/110 78/123/110 42/118/110 1/67/110
f 39/72/111 80/121/111 79/122/111 38/73/111
f 40/70/112 81/119/112 80/121/112 39/72/112
f 41/69/113 88/71/113 40/70/113
f 82/120/114 81/119/114 88/71/114
f 40/70/115 88/71/115 81/119/115
